<svg xmlns="http://www.w3.org/2000/svg" viewBox="0 0 64 64" fill="none">
  <rect width="64" height="64" rx="18" fill="#09090B" />
  <path
    d="M35.686 9.874c.596 7.408-2.864 12.622-7.144 17.877c-3.207 3.938-6.874 8.445-6.874 14.264c0 6.655 4.96 11.985 11.233 11.985c7.651 0 13.431-6.214 13.431-14.306c0-5.552-2.811-9.94-5.649-14.046c-2.623-3.797-5.272-7.326-4.997-15.774Z"
    fill="#10B981"
  />
  <path
    d="M32.323 31.406c.317 3.593-1.329 6.016-3.14 8.26c-1.689 2.094-3.445 4.27-3.445 7.367c0 3.943 2.956 7.029 6.781 7.029c4.598 0 8.163-3.682 8.163-8.46c0-3.261-1.703-5.829-3.419-8.208c-1.599-2.216-3.204-4.283-2.94-8.006Z"
    fill="#34D399"
  />
</svg>
